<?xml version="1.0" encoding="UTF-8" standalone="no"?>
<!-- Created with Inkscape (http://www.inkscape.org/) -->

<svg
   width="1290"
   height="2195"
   viewBox="0 0 1290 2195"
   version="1.1"
   id="svg1"
   xmlns="http://www.w3.org/2000/svg"
   xmlns:svg="http://www.w3.org/2000/svg">
  <defs
     id="defs1" />
  <g
     id="layer3"
     style="fill:#784421"
     transform="translate(0,-295)">
    <rect
       style="opacity:1;fill:#deaa87;fill-opacity:0.98008;fill-rule:evenodd;stroke-width:1.97105"
       id="rect22"
       width="1290"
       height="2095"
       x="0"
       y="345" />
    <g
       id="g25">
      <rect
         style="opacity:1;fill:#a05a2c;fill-opacity:0.98008;fill-rule:evenodd;stroke-width:0.641803"
         id="rect24"
         width="25"
         height="2095"
         x="0"
         y="345" />
      <rect
         style="fill:#a05a2c;fill-opacity:0.98008;fill-rule:evenodd;stroke-width:0.712229"
         id="rect24-02"
         width="50"
         height="1290"
         x="295"
         y="-1290"
         transform="rotate(90)" />
      <rect
         style="fill:#a05a2c;fill-opacity:0.98008;fill-rule:evenodd;stroke-width:0.712229"
         id="rect24-02-1"
         width="50"
         height="1290"
         x="2440"
         y="-1290"
         transform="rotate(90)" />
      <rect
         style="fill:#a05a2c;fill-opacity:0.98008;fill-rule:evenodd;stroke-width:0.531357"
         id="rect24-8-1"
         width="20"
         height="1795"
         x="645"
         y="495.00003" />
      <rect
         style="fill:#a05a2c;fill-opacity:0.98008;fill-rule:evenodd;stroke-width:0.531357"
         id="rect24-8-1-1"
         width="20"
         height="1795"
         x="624.99994"
         y="-2289.9995"
         transform="scale(1,-1)" />
      <rect
         style="fill:#a05a2c;fill-opacity:0.98008;fill-rule:evenodd;stroke-width:0.641803"
         id="rect24-0"
         width="25"
         height="2095"
         x="1265"
         y="345" />
      <rect
         style="fill:#a05a2c;fill-opacity:0.98008;fill-rule:evenodd;stroke-width:0.698289"
         id="rect24-2"
         width="50"
         height="1240"
         x="445"
         y="-1265"
         transform="rotate(90)" />
      <rect
         style="fill:#a05a2c;fill-opacity:0.98008;fill-rule:evenodd;stroke-width:0.69829"
         id="rect24-2-2"
         width="50"
         height="1240"
         x="2290"
         y="-1265"
         transform="rotate(90)" />
    </g>
    <g
       id="g24">
      <path
         style="fill:#008080;fill-opacity:0.98008;fill-rule:evenodd"
         id="path24-2"
         d="m 50.000001,2237.4912 22.736973,39.3816 22.736974,39.3816 -45.473948,0 -45.4739493,0 22.7369753,-39.3816 z"
         transform="matrix(-1.0995306,0,0,-6.9829573,1269.9766,16669.306)" />
      <path
         style="fill:#800000;fill-opacity:0.98008;fill-rule:evenodd"
         id="path24-3-8"
         d="m 50.000001,2237.4912 22.736973,39.3816 22.736974,39.3816 -45.473948,0 -45.4739493,0 22.7369753,-39.3816 z"
         transform="matrix(-1.0995306,0,0,-6.9829573,1169.9766,16669.306)" />
      <path
         style="fill:#008080;fill-opacity:0.98008;fill-rule:evenodd"
         id="path24-4-0"
         d="m 50.000001,2237.4912 22.736973,39.3816 22.736974,39.3816 -45.473948,0 -45.4739493,0 22.7369753,-39.3816 z"
         transform="matrix(-1.0995306,0,0,-6.9829573,1069.9766,16669.306)" />
      <path
         style="fill:#800000;fill-opacity:0.98008;fill-rule:evenodd"
         id="path24-3-5-2"
         d="m 50.000001,2237.4912 22.736973,39.3816 22.736974,39.3816 -45.473948,0 -45.4739493,0 22.7369753,-39.3816 z"
         transform="matrix(-1.0995306,0,0,-6.9829573,969.97661,16669.306)" />
      <path
         style="fill:#008080;fill-opacity:0.98008;fill-rule:evenodd"
         id="path24-4-8-0"
         d="m 50.000001,2237.4912 22.736973,39.3816 22.736974,39.3816 -45.473948,0 -45.4739493,0 22.7369753,-39.3816 z"
         transform="matrix(-1.0995306,0,0,-6.9829573,869.97661,16669.306)" />
      <path
         style="fill:#800000;fill-opacity:0.98008;fill-rule:evenodd"
         id="path24-3-5-0-9"
         d="m 50.000001,2237.4912 22.736973,39.3816 22.736974,39.3816 -45.473948,0 -45.4739493,0 22.7369753,-39.3816 z"
         transform="matrix(-1.0995306,0,0,-6.9829573,769.97661,16669.306)" />
      <path
         style="fill:#008080;fill-opacity:0.98008;fill-rule:evenodd"
         id="path24-31-5"
         d="m 50.000001,2237.4912 22.736973,39.3816 22.736974,39.3816 -45.473948,0 -45.4739493,0 22.7369753,-39.3816 z"
         transform="matrix(-1.0995306,0,0,-6.9829573,629.97651,16669.306)" />
      <path
         style="fill:#800000;fill-opacity:0.98008;fill-rule:evenodd"
         id="path24-3-3-3"
         d="m 50.000001,2237.4912 22.736973,39.3816 22.736974,39.3816 -45.473948,0 -45.4739493,0 22.7369753,-39.3816 z"
         transform="matrix(-1.0995306,0,0,-6.9829573,529.97651,16669.306)" />
      <path
         style="fill:#008080;fill-opacity:0.98008;fill-rule:evenodd"
         id="path24-4-2-5"
         d="m 50.000001,2237.4912 22.736973,39.3816 22.736974,39.3816 -45.473948,0 -45.4739493,0 22.7369753,-39.3816 z"
         transform="matrix(-1.0995306,0,0,-6.9829573,429.97651,16669.306)" />
      <path
         style="fill:#800000;fill-opacity:0.98008;fill-rule:evenodd"
         id="path24-3-5-1-9"
         d="m 50.000001,2237.4912 22.736973,39.3816 22.736974,39.3816 -45.473948,0 -45.4739493,0 22.7369753,-39.3816 z"
         transform="matrix(-1.0995306,0,0,-6.9829573,329.97651,16669.306)" />
      <path
         style="fill:#008080;fill-opacity:0.98008;fill-rule:evenodd"
         id="path24-4-8-6-8"
         d="m 50.000001,2237.4912 22.736973,39.3816 22.736974,39.3816 -45.473948,0 -45.4739493,0 22.7369753,-39.3816 z"
         transform="matrix(-1.0995306,0,0,-6.9829573,229.97643,16669.306)" />
      <path
         style="fill:#800000;fill-opacity:0.98008;fill-rule:evenodd"
         id="path24-3-5-0-8-9"
         d="m 50.000001,2237.4912 22.736973,39.3816 22.736974,39.3816 -45.473948,0 -45.4739493,0 22.7369753,-39.3816 z"
         transform="matrix(-1.0995306,0,0,-6.9829573,129.97653,16669.306)" />
      <path
         style="opacity:1;fill:#008080;fill-opacity:0.98008;fill-rule:evenodd"
         id="path24"
         d="m 50.000001,2237.4912 22.736973,39.3816 22.736974,39.3816 -45.473948,0 -45.4739493,0 22.7369753,-39.3816 z"
         transform="matrix(1.0995306,0,0,6.9829573,20.023469,-13884.306)" />
      <path
         style="fill:#800000;fill-opacity:0.98008;fill-rule:evenodd"
         id="path24-3"
         d="m 50.000001,2237.4912 22.736973,39.3816 22.736974,39.3816 -45.473948,0 -45.4739493,0 22.7369753,-39.3816 z"
         transform="matrix(1.0995306,0,0,6.9829573,120.02346,-13884.306)" />
      <path
         style="fill:#008080;fill-opacity:0.98008;fill-rule:evenodd"
         id="path24-4"
         d="m 50.000001,2237.4912 22.736973,39.3816 22.736974,39.3816 -45.473948,0 -45.4739493,0 22.7369753,-39.3816 z"
         transform="matrix(1.0995306,0,0,6.9829573,220.02346,-13884.306)" />
      <path
         style="fill:#800000;fill-opacity:0.98008;fill-rule:evenodd"
         id="path24-3-5"
         d="m 50.000001,2237.4912 22.736973,39.3816 22.736974,39.3816 -45.473948,0 -45.4739493,0 22.7369753,-39.3816 z"
         transform="matrix(1.0995306,0,0,6.9829573,320.02345,-13884.306)" />
      <path
         style="fill:#008080;fill-opacity:0.98008;fill-rule:evenodd"
         id="path24-4-8"
         d="m 50.000001,2237.4912 22.736973,39.3816 22.736974,39.3816 -45.473948,0 -45.4739493,0 22.7369753,-39.3816 z"
         transform="matrix(1.0995306,0,0,6.9829573,420.02345,-13884.306)" />
      <path
         style="fill:#800000;fill-opacity:0.98008;fill-rule:evenodd"
         id="path24-3-5-0"
         d="m 50.000001,2237.4912 22.736973,39.3816 22.736974,39.3816 -45.473948,0 -45.4739493,0 22.7369753,-39.3816 z"
         transform="matrix(1.0995306,0,0,6.9829573,520.02344,-13884.306)" />
      <path
         style="fill:#008080;fill-opacity:0.98008;fill-rule:evenodd"
         id="path24-31"
         d="m 50.000001,2237.4912 22.736973,39.3816 22.736974,39.3816 -45.473948,0 -45.4739493,0 22.7369753,-39.3816 z"
         transform="matrix(1.0995306,0,0,6.9829573,660.02354,-13884.306)" />
      <path
         style="fill:#800000;fill-opacity:0.98008;fill-rule:evenodd"
         id="path24-3-3"
         d="m 50.000001,2237.4912 22.736973,39.3816 22.736974,39.3816 -45.473948,0 -45.4739493,0 22.7369753,-39.3816 z"
         transform="matrix(1.0995306,0,0,6.9829573,760.02353,-13884.306)" />
      <path
         style="fill:#008080;fill-opacity:0.98008;fill-rule:evenodd"
         id="path24-4-2"
         d="m 50.000001,2237.4912 22.736973,39.3816 22.736974,39.3816 -45.473948,0 -45.4739493,0 22.7369753,-39.3816 z"
         transform="matrix(1.0995306,0,0,6.9829573,860.02357,-13884.306)" />
      <path
         style="fill:#800000;fill-opacity:0.98008;fill-rule:evenodd"
         id="path24-3-5-1"
         d="m 50.000001,2237.4912 22.736973,39.3816 22.736974,39.3816 -45.473948,0 -45.4739493,0 22.7369753,-39.3816 z"
         transform="matrix(1.0995306,0,0,6.9829573,960.02357,-13884.306)" />
      <path
         style="fill:#008080;fill-opacity:0.98008;fill-rule:evenodd"
         id="path24-4-8-6"
         d="m 50.000001,2237.4912 22.736973,39.3816 22.736974,39.3816 -45.473948,0 -45.4739493,0 22.7369753,-39.3816 z"
         transform="matrix(1.0995306,0,0,6.9829573,1060.0236,-13884.306)" />
      <path
         style="fill:#800000;fill-opacity:0.98008;fill-rule:evenodd"
         id="path24-3-5-0-8"
         d="m 50.000001,2237.4912 22.736973,39.3816 22.736974,39.3816 -45.473948,0 -45.4739493,0 22.7369753,-39.3816 z"
         transform="matrix(1.0995306,0,0,6.9829573,1160.0235,-13884.306)" />
    </g>
  </g>
</svg>
