<?xml version="1.0" encoding="UTF-8" standalone="no"?>
<!-- Created with Inkscape (http://www.inkscape.org/) -->

<svg
   width="70"
   height="35"
   viewBox="0 0 70 35"
   version="1.1"
   id="svg1"
   xml:space="preserve"
   xmlns="http://www.w3.org/2000/svg"
   xmlns:svg="http://www.w3.org/2000/svg"><defs
     id="defs1" /><g
     id="layer4"
     transform="translate(-320.59361,505.38883)"><g
       id="g7"
       transform="matrix(0.58333333,0,0,0.58333333,250.59361,-505.38883)"><rect
         style="fill:#803300;fill-opacity:1;stroke-width:3.71825"
         id="rect3"
         width="60"
         height="60"
         x="120"
         y="0"
         ry="6.666667" /><path
         id="path7"
         style="fill:#008000;fill-opacity:0.98008;fill-rule:evenodd;stroke-width:1.4315"
         d="m 175.47306,8.3152802 a 6.118557,27.863405 36.58883 0 0 -20.80915,19.0011188 6.118557,27.863405 36.58883 0 0 -10.3192,16.958702 16.244263,5.3016148 52.8507 0 0 -4.47656,-7.181915 16.244263,5.3016148 52.8507 0 0 -14.03237,-9.746658 16.244263,5.3016148 52.8507 0 0 5.58148,16.14844 16.244263,5.3016148 52.8507 0 0 12.13727,10.068079 6.118557,27.863405 36.58883 0 0 0.32813,0.04018 16.244263,5.3016148 52.8507 0 0 1.30581,-0.227674 6.118557,27.863405 36.58883 0 0 19.30244,-18.763397 6.118557,27.863405 36.58883 0 0 11.69532,-26.0189697 6.118557,27.863405 36.58883 0 0 -0.71317,-0.2779041 z" /></g><g
       id="g8"
       transform="matrix(0.58333333,0,0,0.58333333,285.59361,-505.38883)"><rect
         style="fill:#803300;fill-opacity:1;stroke-width:3.71825"
         id="rect8"
         width="60"
         height="60"
         x="120"
         y="0"
         ry="6.666667" /><path
         id="path8"
         style="fill:#d40000;fill-opacity:0.98008;fill-rule:evenodd;stroke-width:1.05335"
         d="m -54.104181,-673.20341 a 4.7176018,15.9275 0 0 0 -3.419441,11.41192 4.7176018,15.9275 89.214613 0 0 -11.359849,4.8538 4.7176018,15.9275 89.214613 0 0 11.43645,4.17648 4.7176018,15.9275 0 0 0 4.656834,10.93433 4.7176018,15.9275 0 0 0 4.300458,-11.03774 4.7176018,15.9275 89.214613 0 0 11.33237,-5.22968 4.7176018,15.9275 89.214613 0 0 -11.263824,-3.81743 4.7176018,15.9275 0 0 0 -5.090471,-11.65309 4.7176018,15.9275 0 0 0 -0.592527,0.36141 z"
         transform="matrix(1.2215158,1.2027779,-1.2027779,1.2215158,-575.02708,897.15549)" /></g></g></svg>
