<?xml version="1.0" encoding="UTF-8" standalone="no"?>
<!-- Created with Inkscape (http://www.inkscape.org/) -->

<svg
   width="408"
   height="319.99988"
   viewBox="0 0 408 319.99988"
   version="1.1"
   id="svg1"
   xmlns="http://www.w3.org/2000/svg"
   xmlns:svg="http://www.w3.org/2000/svg">
  <defs
     id="defs1" />
  <g
     id="layer3"
     style="fill:#784421"
     transform="matrix(0.74999995,0,0,0.74999995,209.99995,518.37848)">
    <g
       id="g24"
       transform="matrix(0.44444444,0,0,0.44444444,-286.66667,-912.50475)">
      <path
         style="fill:#008080;fill-opacity:0.98008;fill-rule:evenodd"
         id="path24-2"
         d="m 50.000001,2237.4912 22.736973,39.3816 22.736974,39.3816 -45.473948,0 -45.4739493,0 22.7369753,-39.3816 z"
         transform="matrix(-1.1215213,0,0,-6.0942174,1244.0762,14613.758)" />
      <path
         style="fill:#800000;fill-opacity:0.98008;fill-rule:evenodd"
         id="path24-3-8"
         d="m 50.000001,2237.4912 22.736973,39.3816 22.736974,39.3816 -45.473948,0 -45.4739493,0 22.7369753,-39.3816 z"
         transform="matrix(-1.1215213,0,0,-6.0942174,1142.0762,14613.758)" />
      <path
         style="fill:#008080;fill-opacity:0.98008;fill-rule:evenodd"
         id="path24-4-0"
         d="m 50.000001,2237.4912 22.736973,39.3816 22.736974,39.3816 -45.473948,0 -45.4739493,0 22.7369753,-39.3816 z"
         transform="matrix(-1.1215213,0,0,-6.0942174,1040.0762,14613.758)" />
      <path
         style="fill:#800000;fill-opacity:0.98008;fill-rule:evenodd"
         id="path24-3-5-2"
         d="m 50.000001,2237.4912 22.736973,39.3816 22.736974,39.3816 -45.473948,0 -45.4739493,0 22.7369753,-39.3816 z"
         transform="matrix(-1.1215213,0,0,-6.0942174,938.07621,14613.758)" />
      <path
         style="fill:#008080;fill-opacity:0.98008;fill-rule:evenodd"
         id="path24-4-8-0"
         d="m 50.000001,2237.4912 22.736973,39.3816 22.736974,39.3816 -45.473948,0 -45.4739493,0 22.7369753,-39.3816 z"
         transform="matrix(-1.1215213,0,0,-6.0942174,836.0762,14613.758)" />
      <path
         style="fill:#800000;fill-opacity:0.98008;fill-rule:evenodd"
         id="path24-3-5-0-9"
         d="m 50.000001,2237.4912 22.736973,39.3816 22.736974,39.3816 -45.473948,0 -45.4739493,0 22.7369753,-39.3816 z"
         transform="matrix(-1.1215213,0,0,-6.0942174,734.0762,14613.758)" />
      <path
         style="fill:#008080;fill-opacity:0.98008;fill-rule:evenodd"
         id="path24-31-5"
         d="m 50.000001,2237.4912 22.736973,39.3816 22.736974,39.3816 -45.473948,0 -45.4739493,0 22.7369753,-39.3816 z"
         transform="matrix(-1.1215213,0,0,-6.0942174,632.0762,14613.758)" />
      <path
         style="fill:#800000;fill-opacity:0.98008;fill-rule:evenodd"
         id="path24-3-3-3"
         d="m 50.000001,2237.4912 22.736973,39.3816 22.736974,39.3816 -45.473948,0 -45.4739493,0 22.7369753,-39.3816 z"
         transform="matrix(-1.1215213,0,0,-6.0942174,530.07619,14613.758)" />
      <path
         style="fill:#008080;fill-opacity:0.98008;fill-rule:evenodd"
         id="path24-4-2-5"
         d="m 50.000001,2237.4912 22.736973,39.3816 22.736974,39.3816 -45.473948,0 -45.4739493,0 22.7369753,-39.3816 z"
         transform="matrix(-1.1215213,0,0,-6.0942174,428.07619,14613.758)" />
      <path
         style="fill:#800000;fill-opacity:0.98008;fill-rule:evenodd"
         id="path24-3-5-1-9"
         d="m 50.000001,2237.4912 22.736973,39.3816 22.736974,39.3816 -45.473948,0 -45.4739493,0 22.7369753,-39.3816 z"
         transform="matrix(-1.1215213,0,0,-6.0942174,326.07618,14613.758)" />
      <path
         style="fill:#008080;fill-opacity:0.98008;fill-rule:evenodd"
         id="path24-4-8-6-8"
         d="m 50.000001,2237.4912 22.736973,39.3816 22.736974,39.3816 -45.473948,0 -45.4739493,0 22.7369753,-39.3816 z"
         transform="matrix(-1.1215213,0,0,-6.0942174,224.07618,14613.758)" />
      <path
         style="fill:#800000;fill-opacity:0.98008;fill-rule:evenodd"
         id="path24-3-5-0-8-9"
         d="m 50.000001,2237.4912 22.736973,39.3816 22.736974,39.3816 -45.473948,0 -45.4739493,0 22.7369753,-39.3816 z"
         transform="matrix(-1.1215213,0,0,-6.0942174,122.07618,14613.758)" />
      <path
         style="opacity:1;fill:#008080;fill-opacity:0.98008;fill-rule:evenodd"
         id="path24"
         d="m 50.000001,2237.4912 22.736973,39.3816 22.736974,39.3816 -45.473948,0 -45.4739493,0 22.7369753,-39.3816 z"
         transform="matrix(1.1215213,0,0,6.0942174,9.9240488,-12657.758)" />
      <path
         style="fill:#800000;fill-opacity:0.98008;fill-rule:evenodd"
         id="path24-3"
         d="m 50.000001,2237.4912 22.736973,39.3816 22.736974,39.3816 -45.473948,0 -45.4739493,0 22.7369753,-39.3816 z"
         transform="matrix(1.1215213,0,0,6.0942174,111.92405,-12657.758)" />
      <path
         style="fill:#008080;fill-opacity:0.98008;fill-rule:evenodd"
         id="path24-4"
         d="m 50.000001,2237.4912 22.736973,39.3816 22.736974,39.3816 -45.473948,0 -45.4739493,0 22.7369753,-39.3816 z"
         transform="matrix(1.1215213,0,0,6.0942174,213.92406,-12657.758)" />
      <path
         style="fill:#800000;fill-opacity:0.98008;fill-rule:evenodd"
         id="path24-3-5"
         d="m 50.000001,2237.4912 22.736973,39.3816 22.736974,39.3816 -45.473948,0 -45.4739493,0 22.7369753,-39.3816 z"
         transform="matrix(1.1215213,0,0,6.0942174,315.92406,-12657.758)" />
      <path
         style="fill:#008080;fill-opacity:0.98008;fill-rule:evenodd"
         id="path24-4-8"
         d="m 50.000001,2237.4912 22.736973,39.3816 22.736974,39.3816 -45.473948,0 -45.4739493,0 22.7369753,-39.3816 z"
         transform="matrix(1.1215213,0,0,6.0942174,417.92406,-12657.758)" />
      <path
         style="fill:#800000;fill-opacity:0.98008;fill-rule:evenodd"
         id="path24-3-5-0"
         d="m 50.000001,2237.4912 22.736973,39.3816 22.736974,39.3816 -45.473948,0 -45.4739493,0 22.7369753,-39.3816 z"
         transform="matrix(1.1215213,0,0,6.0942174,519.92407,-12657.758)" />
      <path
         style="fill:#008080;fill-opacity:0.98008;fill-rule:evenodd"
         id="path24-31"
         d="m 50.000001,2237.4912 22.736973,39.3816 22.736974,39.3816 -45.473948,0 -45.4739493,0 22.7369753,-39.3816 z"
         transform="matrix(1.1215213,0,0,6.0942174,621.92407,-12657.758)" />
      <path
         style="fill:#800000;fill-opacity:0.98008;fill-rule:evenodd"
         id="path24-3-3"
         d="m 50.000001,2237.4912 22.736973,39.3816 22.736974,39.3816 -45.473948,0 -45.4739493,0 22.7369753,-39.3816 z"
         transform="matrix(1.1215213,0,0,6.0942174,723.92408,-12657.758)" />
      <path
         style="fill:#008080;fill-opacity:0.98008;fill-rule:evenodd"
         id="path24-4-2"
         d="m 50.000001,2237.4912 22.736973,39.3816 22.736974,39.3816 -45.473948,0 -45.4739493,0 22.7369753,-39.3816 z"
         transform="matrix(1.1215213,0,0,6.0942174,825.92408,-12657.758)" />
      <path
         style="fill:#800000;fill-opacity:0.98008;fill-rule:evenodd"
         id="path24-3-5-1"
         d="m 50.000001,2237.4912 22.736973,39.3816 22.736974,39.3816 -45.473948,0 -45.4739493,0 22.7369753,-39.3816 z"
         transform="matrix(1.1215213,0,0,6.0942174,927.92408,-12657.758)" />
      <path
         style="fill:#008080;fill-opacity:0.98008;fill-rule:evenodd"
         id="path24-4-8-6"
         d="m 50.000001,2237.4912 22.736973,39.3816 22.736974,39.3816 -45.473948,0 -45.4739493,0 22.7369753,-39.3816 z"
         transform="matrix(1.1215213,0,0,6.0942174,1029.9241,-12657.758)" />
      <path
         style="fill:#800000;fill-opacity:0.98008;fill-rule:evenodd"
         id="path24-3-5-0-8"
         d="m 50.000001,2237.4912 22.736973,39.3816 22.736974,39.3816 -45.473948,0 -45.4739493,0 22.7369753,-39.3816 z"
         transform="matrix(1.1215213,0,0,6.0942174,1131.9241,-12657.758)" />
    </g>
  </g>
</svg>
