<?xml version="1.0" encoding="UTF-8" standalone="no"?>
<!-- Created with Inkscape (http://www.inkscape.org/) -->

<svg
   width="1200"
   height="1100.0002"
   viewBox="0 0 1200 1100.0002"
   version="1.1"
   id="svg1"
   xmlns="http://www.w3.org/2000/svg"
   xmlns:svg="http://www.w3.org/2000/svg">
  <defs
     id="defs1" />
  <g
     id="layer3"
     style="fill:#784421"
     transform="translate(-25,-495.00046)">
    <g
       id="g24">
      <path
         style="fill:#008080;fill-opacity:0.98008;fill-rule:evenodd"
         id="path24-2"
         d="m 50.000001,2237.4912 22.736973,39.3816 22.736974,39.3816 -45.473948,0 -45.4739493,0 22.7369753,-39.3816 z"
         transform="matrix(-1.0995306,0,0,-6.9829573,1229.9765,16669.306)" />
      <path
         style="fill:#800000;fill-opacity:0.98008;fill-rule:evenodd"
         id="path24-3-8"
         d="m 50.000001,2237.4912 22.736973,39.3816 22.736974,39.3816 -45.473948,0 -45.4739493,0 22.7369753,-39.3816 z"
         transform="matrix(-1.0995306,0,0,-6.9829573,1129.9765,16669.306)" />
      <path
         style="fill:#008080;fill-opacity:0.98008;fill-rule:evenodd"
         id="path24-4-0"
         d="m 50.000001,2237.4912 22.736973,39.3816 22.736974,39.3816 -45.473948,0 -45.4739493,0 22.7369753,-39.3816 z"
         transform="matrix(-1.0995306,0,0,-6.9829573,1029.9765,16669.306)" />
      <path
         style="fill:#800000;fill-opacity:0.98008;fill-rule:evenodd"
         id="path24-3-5-2"
         d="m 50.000001,2237.4912 22.736973,39.3816 22.736974,39.3816 -45.473948,0 -45.4739493,0 22.7369753,-39.3816 z"
         transform="matrix(-1.0995306,0,0,-6.9829573,929.97649,16669.306)" />
      <path
         style="fill:#008080;fill-opacity:0.98008;fill-rule:evenodd"
         id="path24-4-8-0"
         d="m 50.000001,2237.4912 22.736973,39.3816 22.736974,39.3816 -45.473948,0 -45.4739493,0 22.7369753,-39.3816 z"
         transform="matrix(-1.0995306,0,0,-6.9829573,829.9765,16669.306)" />
      <path
         style="fill:#800000;fill-opacity:0.98008;fill-rule:evenodd"
         id="path24-3-5-0-9"
         d="m 50.000001,2237.4912 22.736973,39.3816 22.736974,39.3816 -45.473948,0 -45.4739493,0 22.7369753,-39.3816 z"
         transform="matrix(-1.0995306,0,0,-6.9829573,729.9765,16669.306)" />
      <path
         style="fill:#008080;fill-opacity:0.98008;fill-rule:evenodd"
         id="path24-31-5"
         d="m 50.000001,2237.4912 22.736973,39.3816 22.736974,39.3816 -45.473948,0 -45.4739493,0 22.7369753,-39.3816 z"
         transform="matrix(-1.0995306,0,0,-6.9829573,629.97651,16669.306)" />
      <path
         style="fill:#800000;fill-opacity:0.98008;fill-rule:evenodd"
         id="path24-3-3-3"
         d="m 50.000001,2237.4912 22.736973,39.3816 22.736974,39.3816 -45.473948,0 -45.4739493,0 22.7369753,-39.3816 z"
         transform="matrix(-1.0995306,0,0,-6.9829573,529.97651,16669.306)" />
      <path
         style="fill:#008080;fill-opacity:0.98008;fill-rule:evenodd"
         id="path24-4-2-5"
         d="m 50.000001,2237.4912 22.736973,39.3816 22.736974,39.3816 -45.473948,0 -45.4739493,0 22.7369753,-39.3816 z"
         transform="matrix(-1.0995306,0,0,-6.9829573,429.97652,16669.306)" />
      <path
         style="fill:#800000;fill-opacity:0.98008;fill-rule:evenodd"
         id="path24-3-5-1-9"
         d="m 50.000001,2237.4912 22.736973,39.3816 22.736974,39.3816 -45.473948,0 -45.4739493,0 22.7369753,-39.3816 z"
         transform="matrix(-1.0995306,0,0,-6.9829573,329.97652,16669.306)" />
      <path
         style="fill:#008080;fill-opacity:0.98008;fill-rule:evenodd"
         id="path24-4-8-6-8"
         d="m 50.000001,2237.4912 22.736973,39.3816 22.736974,39.3816 -45.473948,0 -45.4739493,0 22.7369753,-39.3816 z"
         transform="matrix(-1.0995306,0,0,-6.9829573,229.97652,16669.306)" />
      <path
         style="fill:#800000;fill-opacity:0.98008;fill-rule:evenodd"
         id="path24-3-5-0-8-9"
         d="m 50.000001,2237.4912 22.736973,39.3816 22.736974,39.3816 -45.473948,0 -45.4739493,0 22.7369753,-39.3816 z"
         transform="matrix(-1.0995306,0,0,-6.9829573,129.97653,16669.306)" />
      <path
         style="opacity:1;fill:#008080;fill-opacity:0.98008;fill-rule:evenodd"
         id="path24"
         d="m 50.000001,2237.4912 22.736973,39.3816 22.736974,39.3816 -45.473948,0 -45.4739493,0 22.7369753,-39.3816 z"
         transform="matrix(1.0995306,0,0,6.9829573,20.023469,-14579.305)" />
      <path
         style="fill:#800000;fill-opacity:0.98008;fill-rule:evenodd"
         id="path24-3"
         d="m 50.000001,2237.4912 22.736973,39.3816 22.736974,39.3816 -45.473948,0 -45.4739493,0 22.7369753,-39.3816 z"
         transform="matrix(1.0995306,0,0,6.9829573,120.02346,-14579.305)" />
      <path
         style="fill:#008080;fill-opacity:0.98008;fill-rule:evenodd"
         id="path24-4"
         d="m 50.000001,2237.4912 22.736973,39.3816 22.736974,39.3816 -45.473948,0 -45.4739493,0 22.7369753,-39.3816 z"
         transform="matrix(1.0995306,0,0,6.9829573,220.02346,-14579.305)" />
      <path
         style="fill:#800000;fill-opacity:0.98008;fill-rule:evenodd"
         id="path24-3-5"
         d="m 50.000001,2237.4912 22.736973,39.3816 22.736974,39.3816 -45.473948,0 -45.4739493,0 22.7369753,-39.3816 z"
         transform="matrix(1.0995306,0,0,6.9829573,320.02346,-14579.305)" />
      <path
         style="fill:#008080;fill-opacity:0.98008;fill-rule:evenodd"
         id="path24-4-8"
         d="m 50.000001,2237.4912 22.736973,39.3816 22.736974,39.3816 -45.473948,0 -45.4739493,0 22.7369753,-39.3816 z"
         transform="matrix(1.0995306,0,0,6.9829573,420.02345,-14579.305)" />
      <path
         style="fill:#800000;fill-opacity:0.98008;fill-rule:evenodd"
         id="path24-3-5-0"
         d="m 50.000001,2237.4912 22.736973,39.3816 22.736974,39.3816 -45.473948,0 -45.4739493,0 22.7369753,-39.3816 z"
         transform="matrix(1.0995306,0,0,6.9829573,520.02345,-14579.305)" />
      <path
         style="fill:#008080;fill-opacity:0.98008;fill-rule:evenodd"
         id="path24-31"
         d="m 50.000001,2237.4912 22.736973,39.3816 22.736974,39.3816 -45.473948,0 -45.4739493,0 22.7369753,-39.3816 z"
         transform="matrix(1.0995306,0,0,6.9829573,620.02344,-14579.305)" />
      <path
         style="fill:#800000;fill-opacity:0.98008;fill-rule:evenodd"
         id="path24-3-3"
         d="m 50.000001,2237.4912 22.736973,39.3816 22.736974,39.3816 -45.473948,0 -45.4739493,0 22.7369753,-39.3816 z"
         transform="matrix(1.0995306,0,0,6.9829573,720.02344,-14579.305)" />
      <path
         style="fill:#008080;fill-opacity:0.98008;fill-rule:evenodd"
         id="path24-4-2"
         d="m 50.000001,2237.4912 22.736973,39.3816 22.736974,39.3816 -45.473948,0 -45.4739493,0 22.7369753,-39.3816 z"
         transform="matrix(1.0995306,0,0,6.9829573,820.02344,-14579.305)" />
      <path
         style="fill:#800000;fill-opacity:0.98008;fill-rule:evenodd"
         id="path24-3-5-1"
         d="m 50.000001,2237.4912 22.736973,39.3816 22.736974,39.3816 -45.473948,0 -45.4739493,0 22.7369753,-39.3816 z"
         transform="matrix(1.0995306,0,0,6.9829573,920.02343,-14579.305)" />
      <path
         style="fill:#008080;fill-opacity:0.98008;fill-rule:evenodd"
         id="path24-4-8-6"
         d="m 50.000001,2237.4912 22.736973,39.3816 22.736974,39.3816 -45.473948,0 -45.4739493,0 22.7369753,-39.3816 z"
         transform="matrix(1.0995306,0,0,6.9829573,1020.0234,-14579.305)" />
      <path
         style="fill:#800000;fill-opacity:0.98008;fill-rule:evenodd"
         id="path24-3-5-0-8"
         d="m 50.000001,2237.4912 22.736973,39.3816 22.736974,39.3816 -45.473948,0 -45.4739493,0 22.7369753,-39.3816 z"
         transform="matrix(1.0995306,0,0,6.9829573,1120.0234,-14579.305)" />
    </g>
  </g>
</svg>
